# xmcd
#
# Track frame offsets: 
#        150
#        10950
#        31110
#        44799
#        60025
#        82960
#        96538
#        109138
#        131609
#        151661
#        171257
#        186149
#
# Disc length: 2684 seconds
#
# Revision: 0
# Processed by: cddbd v1.5.2PL0 Copyright (c) Steve Scherf et al.
# Submitted via: ExactAudioCopy v0.99pb5
#
DISCID=910a7a0c
DTITLE=Tapani Kansalainen - Eilisen keisari, narri loppuel‰m‰n
DYEAR=2010
DGENRE=Hip-Hop
TTITLE0=Huonot tapani
TTITLE1=Huomenna (feat. Laiska Leppone)
TTITLE2=S‰‰t‰j‰
TTITLE3=Naisongelmii
TTITLE4=33210 (feat. Major Tutka)
TTITLE5=Aakkosten alkeet
TTITLE6=El‰m‰ntapani
TTITLE7=Horoista
TTITLE8=Vertigo (feat. Tykopaatti)
TTITLE9=El‰kett‰ venaillessa
TTITLE10=Myllyt sallittu (feat. Huutava v‰‰ryys)
TTITLE11=Sunnuntairaportti (feat. Huutava v‰‰ryys)
EXTD=
EXTT0=
EXTT1=
EXTT2=
EXTT3=
EXTT4=
EXTT5=
EXTT6=
EXTT7=
EXTT8=
EXTT9=
EXTT10=
EXTT11=
PLAYORDER=
